<svg width="42" height="41" viewBox="0 0 42 41" fill="none" xmlns="http://www.w3.org/2000/svg">
<path d="M27.4091 0.69123H14.2511C6.59706 0.69123 0.362061 7.47363 0.362061 15.8112C0.362061 22.896 4.83406 28.9872 11.1121 30.5856V40.1328C11.1121 40.4784 11.2841 40.7808 11.5851 40.9104C11.7141 40.9536 11.8001 40.9968 11.9291 40.9968C12.1441 40.9968 12.3161 40.9104 12.4881 40.7808L23.5821 30.9744H27.4091C35.0631 30.9744 41.2551 24.192 41.2551 15.8112C41.2551 7.43043 35.0631 0.69123 27.4091 0.69123ZM27.4091 29.2896H23.2381C23.0231 29.2896 22.8511 29.376 22.6791 29.5056L12.7891 38.2752V29.8944C12.7891 29.5056 12.4881 29.16 12.1011 29.0736C6.29606 27.9504 2.03906 22.3776 2.03906 15.8112C2.03906 8.42403 7.50006 2.37603 14.2511 2.37603H27.4521C34.1601 2.37603 39.6211 8.42403 39.6211 15.8544C39.6211 23.2416 34.1601 29.2896 27.4091 29.2896Z" fill="white"/>
<path d="M9.34901 18.8784C9.134 18.8784 9.005 18.7056 9.005 18.5328V14.5152C9.005 14.2992 9.177 14.1696 9.34901 14.1696C9.56401 14.1696 9.69301 14.3424 9.69301 14.5152V18.5328C9.73601 18.7056 9.56401 18.8784 9.34901 18.8784Z" fill="white"/>
<path d="M16.401 18.8784C16.186 18.8784 16.057 18.7056 16.057 18.5328V14.5152C16.057 14.2992 16.229 14.1696 16.401 14.1696C16.573 14.1696 16.745 14.3424 16.745 14.5152V18.5328C16.788 18.7056 16.616 18.8784 16.401 18.8784Z" fill="white"/>
<path d="M23.496 19.5696C23.281 19.5696 23.152 19.3968 23.152 19.224V13.7808C23.152 13.5648 23.324 13.4352 23.496 13.4352C23.711 13.4352 23.84 13.608 23.84 13.7808V19.224C23.84 19.3968 23.668 19.5696 23.496 19.5696Z" fill="white"/>
<path d="M25.259 18.3168C25.044 18.3168 24.915 18.144 24.915 17.9712V15.0336C24.915 14.8176 25.087 14.688 25.259 14.688C25.474 14.688 25.603 14.8608 25.603 15.0336V17.9712C25.603 18.1872 25.431 18.3168 25.259 18.3168Z" fill="white"/>
<path d="M32.311 18.3168C32.096 18.3168 31.967 18.144 31.967 17.9712V15.0336C31.967 14.8176 32.139 14.688 32.311 14.688C32.526 14.688 32.655 14.8608 32.655 15.0336V17.9712C32.655 18.1872 32.483 18.3168 32.311 18.3168Z" fill="white"/>
<path d="M11.1119 20.2176C10.8969 20.2176 10.7679 20.0448 10.7679 19.872V13.0896C10.7679 12.8736 10.9399 12.744 11.1119 12.744C11.2839 12.744 11.4559 12.9168 11.4559 13.0896V19.872C11.4989 20.088 11.3269 20.2176 11.1119 20.2176Z" fill="white"/>
<path d="M18.1639 20.2176C17.9489 20.2176 17.8199 20.0448 17.8199 19.872V13.0896C17.8199 12.8736 17.9919 12.744 18.1639 12.744C18.3789 12.744 18.5079 12.9168 18.5079 13.0896V19.872C18.5509 20.088 18.3789 20.2176 18.1639 20.2176Z" fill="white"/>
<path d="M19.927 21.384C19.712 21.384 19.583 21.2112 19.583 21.0384V11.9664C19.583 11.7504 19.755 11.6208 19.927 11.6208C20.142 11.6208 20.271 11.7936 20.271 11.9664V21.0384C20.314 21.2544 20.142 21.384 19.927 21.384Z" fill="white"/>
<path d="M28.785 20.2176C28.57 20.2176 28.441 20.0448 28.441 19.872V13.0896C28.441 12.8736 28.613 12.744 28.785 12.744C29 12.744 29.129 12.9168 29.129 13.0896V19.872C29.129 20.088 28.957 20.2176 28.785 20.2176Z" fill="white"/>
<path d="M30.548 21.384C30.333 21.384 30.204 21.2112 30.204 21.0384V11.9664C30.204 11.7504 30.376 11.6208 30.548 11.6208C30.72 11.6208 30.892 11.7936 30.892 11.9664V21.0384C30.892 21.2544 30.72 21.384 30.548 21.384Z" fill="white"/>
<path d="M14.6381 21.0816C14.4231 21.0816 14.2941 20.9088 14.2941 20.736V12.2688C14.2941 12.0528 14.4661 11.9232 14.6381 11.9232C14.8531 11.9232 14.9821 12.096 14.9821 12.2688V20.736C15.0251 20.9088 14.8531 21.0816 14.6381 21.0816Z" fill="white"/>
<path d="M12.875 23.6304C12.66 23.6304 12.531 23.4576 12.531 23.2848V9.72003C12.531 9.50403 12.703 9.37443 12.875 9.37443C13.09 9.37443 13.219 9.54723 13.219 9.72003V23.2416C13.262 23.4576 13.09 23.6304 12.875 23.6304Z" fill="white"/>
<path d="M21.733 22.9824C21.518 22.9824 21.389 22.8096 21.389 22.6368V10.368C21.389 10.152 21.561 10.0224 21.733 10.0224C21.948 10.0224 22.077 10.1952 22.077 10.368V22.6368C22.077 22.8096 21.905 22.9824 21.733 22.9824Z" fill="white"/>
<path d="M27.022 22.9824C26.807 22.9824 26.678 22.8096 26.678 22.6368V10.368C26.678 10.152 26.85 10.0224 27.022 10.0224C27.194 10.0224 27.366 10.1952 27.366 10.368V22.6368C27.366 22.8096 27.194 22.9824 27.022 22.9824Z" fill="white"/>
<path d="M32.053 16.7616H9.56397C9.34897 16.7616 9.21997 16.5888 9.21997 16.416C9.21997 16.2432 9.39197 16.0704 9.56397 16.0704H32.053C32.268 16.0704 32.397 16.2432 32.397 16.416C32.397 16.5888 32.268 16.7616 32.053 16.7616Z" fill="white"/>
</svg>
