<svg width="84" height="84" viewBox="0 0 84 84" fill="none" xmlns="http://www.w3.org/2000/svg">
<path d="M14.91 38.57V55.965C14.91 62.335 14.91 62.335 20.93 66.395L37.485 75.95C39.97 77.385 44.03 77.385 46.515 75.95L63.07 66.395C69.09 62.335 69.09 62.335 69.09 55.965V38.57C69.09 32.2 69.09 32.2 63.07 28.14L46.515 18.585C44.03 17.15 39.97 17.15 37.485 18.585L20.93 28.14C14.91 32.2 14.91 32.2 14.91 38.57Z" stroke="white" stroke-width="3" stroke-linecap="round" stroke-linejoin="round"/>
<path d="M61.25 26.705V17.5C61.25 10.5 57.75 7 50.75 7H33.25C26.25 7 22.75 10.5 22.75 17.5V26.46" stroke="white" stroke-width="3" stroke-linecap="round" stroke-linejoin="round"/>
<path d="M44.205 38.465L46.2 41.58C46.515 42.07 47.215 42.56 47.74 42.7L51.31 43.61C53.515 44.17 54.11 46.06 52.675 47.81L50.33 50.645C49.98 51.1 49.7 51.905 49.735 52.465L49.945 56.14C50.085 58.415 48.475 59.57 46.375 58.73L42.945 57.365C42.42 57.155 41.545 57.155 41.02 57.365L37.59 58.73C35.49 59.57 33.88 58.38 34.02 56.14L34.23 52.465C34.265 51.905 33.985 51.065 33.635 50.645L31.29 47.81C29.855 46.06 30.45 44.17 32.655 43.61L36.225 42.7C36.785 42.56 37.485 42.035 37.765 41.58L39.76 38.465C41.02 36.575 42.98 36.575 44.205 38.465Z" stroke="white" stroke-width="3" stroke-linecap="round" stroke-linejoin="round"/>
</svg>
