<svg width="73" height="73" viewBox="0 0 73 73" fill="none" xmlns="http://www.w3.org/2000/svg">
<path d="M30.4166 53.2292H42.5833" stroke="white" stroke-width="3" stroke-linecap="round" stroke-linejoin="round"/>
<path d="M6.08337 53.2292V22.8125C6.08337 10.6459 9.12504 7.60419 21.2917 7.60419" stroke="white" stroke-width="3" stroke-linecap="round" stroke-linejoin="round"/>
<path d="M66.9167 53.2292V22.8125C66.9167 10.6459 63.875 7.60419 51.7084 7.60419" stroke="white" stroke-width="3" stroke-linecap="round" stroke-linejoin="round"/>
<path d="M30.4167 48.3929V58.4C30.4167 64.4833 27.9834 66.9166 21.9 66.9166H14.6C8.51671 66.9166 6.08337 64.4833 6.08337 58.4V48.3929C6.08337 42.3096 8.51671 39.8762 14.6 39.8762H21.9C27.9834 39.8762 30.4167 42.3096 30.4167 48.3929Z" stroke="white" stroke-width="3" stroke-linecap="round" stroke-linejoin="round"/>
<path d="M66.9167 48.3929V58.4C66.9167 64.4833 64.4834 66.9166 58.4 66.9166H51.1C45.0167 66.9166 42.5834 64.4833 42.5834 58.4V48.3929C42.5834 42.3096 45.0167 39.8762 51.1 39.8762H58.4C64.4834 39.8762 66.9167 42.3096 66.9167 48.3929Z" stroke="white" stroke-width="3" stroke-linecap="round" stroke-linejoin="round"/>
</svg>
