<svg width="1440" height="975" viewBox="0 0 1440 975" fill="none" xmlns="http://www.w3.org/2000/svg">
<g clip-path="url(#clip0_51_1118)">
<path d="M1585.09 524C1595.13 563.3 1583.33 604.964 1554.18 633.17L1399.24 783.106C1362.4 818.751 1306.19 825.136 1262.29 798.661L536.879 361.102C515.189 348.019 498.524 328.027 489.558 304.336L332.202 -111.47C301.273 -193.199 370.845 -277.602 456.974 -262.842L1354.3 -109.066C1398.25 -101.534 1433.66 -68.8591 1444.7 -25.6543L1585.09 524Z" fill="url(#paint0_linear_51_1118)"/>
<path d="M-378.505 -196.515C-400.573 -276.467 -331.855 -352.158 -250.148 -337.897L1150.47 -93.4232C1223.26 -80.7164 1264.47 -2.70313 1233.94 64.5905L1009.96 558.136C999.928 580.247 983.039 598.538 961.796 610.299L376.591 934.295C342.374 953.239 300.793 953.142 266.665 934.039L-86.1525 736.554C-112.502 721.805 -131.853 697.123 -139.887 668.014L-378.505 -196.515Z" fill="url(#paint1_linear_51_1118)"/>
</g>
<defs>
<linearGradient id="paint0_linear_51_1118" x1="1317.67" y1="1065.3" x2="772.278" y2="-85.2701" gradientUnits="userSpaceOnUse">
<stop stop-color="#2FF2DA"/>
<stop offset="0.607782" stop-color="#2F8DFB" stop-opacity="0.92"/>
</linearGradient>
<linearGradient id="paint1_linear_51_1118" x1="408.137" y1="-458.796" x2="559.302" y2="939.054" gradientUnits="userSpaceOnUse">
<stop stop-color="#2FF294"/>
<stop offset="1" stop-color="#2F81FB" stop-opacity="0.92"/>
</linearGradient>
<clipPath id="clip0_51_1118">
<rect width="1440" height="975" fill="white"/>
</clipPath>
</defs>
</svg>
