<svg width="72" height="72" viewBox="0 0 72 72" fill="none" xmlns="http://www.w3.org/2000/svg">
<path d="M54 21.48C53.82 21.45 53.61 21.45 53.43 21.48C49.29 21.33 45.99 17.94 45.99 13.74C45.99 9.45001 49.44 6 53.73 6C58.02 6 61.47 9.48001 61.47 13.74C61.44 17.94 58.14 21.33 54 21.48Z" stroke="white" stroke-width="3" stroke-linecap="round" stroke-linejoin="round"/>
<path d="M50.91 43.32C55.02 44.01 59.55 43.29 62.73 41.16C66.96 38.34 66.96 33.72 62.73 30.9C59.52 28.77 54.9299 28.05 50.8199 28.77" stroke="white" stroke-width="3" stroke-linecap="round" stroke-linejoin="round"/>
<path d="M17.9101 21.48C18.0901 21.45 18.3001 21.45 18.4801 21.48C22.6201 21.33 25.9201 17.94 25.9201 13.74C25.9201 9.45001 22.4701 6 18.1801 6C13.8901 6 10.4401 9.48001 10.4401 13.74C10.4701 17.94 13.7701 21.33 17.9101 21.48Z" stroke="white" stroke-width="3" stroke-linecap="round" stroke-linejoin="round"/>
<path d="M21.0001 43.32C16.8901 44.01 12.3601 43.29 9.18007 41.16C4.95007 38.34 4.95007 33.72 9.18007 30.9C12.3901 28.77 16.9801 28.05 21.0901 28.77" stroke="white" stroke-width="3" stroke-linecap="round" stroke-linejoin="round"/>
<path d="M36 43.89C35.82 43.86 35.61 43.86 35.43 43.89C31.29 43.74 27.99 40.35 27.99 36.15C27.99 31.86 31.44 28.41 35.73 28.41C40.02 28.41 43.47 31.89 43.47 36.15C43.44 40.35 40.14 43.77 36 43.89Z" stroke="white" stroke-width="3" stroke-linecap="round" stroke-linejoin="round"/>
<path d="M27.27 53.34C23.04 56.16 23.04 60.78 27.27 63.6C32.07 66.81 39.93 66.81 44.73 63.6C48.96 60.78 48.96 56.16 44.73 53.34C39.96 50.16 32.07 50.16 27.27 53.34Z" stroke="white" stroke-width="3" stroke-linecap="round" stroke-linejoin="round"/>
</svg>
