<svg width="163" height="32" viewBox="0 0 163 32" fill="none" xmlns="http://www.w3.org/2000/svg">
<path fill-rule="evenodd" clip-rule="evenodd" d="M1 6.838C1 6.35053 1.19365 5.88303 1.53834 5.53834C1.88303 5.19365 2.35053 5 2.838 5H21.16C21.4016 4.99961 21.6409 5.04687 21.8641 5.13907C22.0874 5.23127 22.2903 5.36661 22.4612 5.53734C22.6322 5.70807 22.7677 5.91083 22.8602 6.13401C22.9526 6.3572 23.0001 6.59643 23 6.838V25.16C23.0003 25.4016 22.9529 25.6409 22.8606 25.8642C22.7683 26.0875 22.6328 26.2904 22.462 26.4613C22.2912 26.6322 22.0884 26.7678 21.8651 26.8602C21.6419 26.9526 21.4026 27.0001 21.161 27H2.838C2.59655 27 2.35746 26.9524 2.1344 26.86C1.91134 26.7676 1.70867 26.6321 1.53798 26.4613C1.3673 26.2905 1.23193 26.0878 1.13962 25.8647C1.04731 25.6416 0.999869 25.4025 1 25.161V6.838ZM9.708 13.388H12.687V14.884C13.117 14.024 14.217 13.25 15.87 13.25C19.039 13.25 19.79 14.963 19.79 18.106V23.928H16.583V18.822C16.583 17.032 16.153 16.022 15.061 16.022C13.546 16.022 12.916 17.111 12.916 18.822V23.928H9.708V13.388ZM4.208 23.791H7.416V13.25H4.208V23.79V23.791ZM7.875 9.812C7.88105 10.0867 7.83217 10.3598 7.73124 10.6153C7.63031 10.8708 7.47935 11.1036 7.28723 11.3C7.09511 11.4964 6.8657 11.6525 6.61246 11.759C6.35921 11.8655 6.08724 11.9204 5.8125 11.9204C5.53776 11.9204 5.26579 11.8655 5.01255 11.759C4.7593 11.6525 4.52989 11.4964 4.33777 11.3C4.14565 11.1036 3.99469 10.8708 3.89376 10.6153C3.79283 10.3598 3.74395 10.0867 3.75 9.812C3.76187 9.27286 3.98439 8.75979 4.36989 8.38269C4.75539 8.00558 5.27322 7.79442 5.8125 7.79442C6.35178 7.79442 6.86961 8.00558 7.25512 8.38269C7.64062 8.75979 7.86313 9.27286 7.875 9.812Z" fill="white"/>
<path d="M162.643 8.93695C161.808 9.30695 160.911 9.55696 159.968 9.66996C160.941 9.08775 161.669 8.17142 162.016 7.09195C161.102 7.63494 160.101 8.01715 159.058 8.22196C158.356 7.47282 157.427 6.97628 156.414 6.80943C155.402 6.64258 154.362 6.81475 153.457 7.29921C152.552 7.78367 151.833 8.55332 151.41 9.48866C150.988 10.424 150.886 11.4727 151.12 12.472C149.268 12.379 147.456 11.8975 145.801 11.0589C144.147 10.2202 142.688 9.04312 141.518 7.60396C141.118 8.29396 140.888 9.09396 140.888 9.94596C140.888 10.713 141.076 11.4682 141.438 12.1447C141.799 12.8212 142.322 13.398 142.96 13.824C142.22 13.8004 141.497 13.6005 140.85 13.241V13.301C140.85 14.3767 141.222 15.4193 141.903 16.252C142.584 17.0846 143.533 17.6559 144.587 17.869C143.901 18.0547 143.181 18.082 142.483 17.949C142.781 18.8746 143.36 19.684 144.14 20.2639C144.921 20.8438 145.863 21.1651 146.835 21.183C145.185 22.4784 143.147 23.181 141.049 23.178C140.677 23.1781 140.306 23.1564 139.937 23.113C142.066 24.4821 144.545 25.2088 147.077 25.206C155.647 25.206 160.332 18.108 160.332 11.952C160.332 11.752 160.327 11.55 160.318 11.35C161.229 10.6909 162.016 9.87485 162.641 8.93995L162.643 8.93695Z" fill="white"/>
<path d="M68.67 4H47.33C46.9781 4.00262 46.6413 4.14358 46.3924 4.39244C46.1436 4.6413 46.0026 4.97807 46 5.33V26.67C46.0026 27.0219 46.1436 27.3587 46.3924 27.6076C46.6413 27.8564 46.9781 27.9974 47.33 28H58.82V18.72H55.7V15.09H58.82V12.42C58.82 9.32 60.71 7.63 63.49 7.63C64.42 7.63 65.35 7.63 66.28 7.77V11H64.37C62.86 11 62.57 11.72 62.57 12.77V15.08H66.17L65.7 18.71H62.57V28H68.67C69.0219 27.9974 69.3587 27.8564 69.6076 27.6076C69.8564 27.3587 69.9974 27.0219 70 26.67V5.33C69.9974 4.97807 69.8564 4.6413 69.6076 4.39244C69.3587 4.14358 69.0219 4.00262 68.67 4Z" fill="white"/>
<path fill-rule="evenodd" clip-rule="evenodd" d="M100.465 4.066C101.638 4.012 102.012 4 105 4C107.988 4 108.362 4.013 109.534 4.066C110.706 4.119 111.506 4.306 112.206 4.577C112.939 4.854 113.604 5.287 114.154 5.847C114.714 6.396 115.146 7.06 115.422 7.794C115.694 8.494 115.88 9.294 115.934 10.464C115.988 11.639 116 12.013 116 15C116 17.988 115.987 18.362 115.934 19.535C115.881 20.705 115.694 21.505 115.422 22.205C115.146 22.9391 114.713 23.6042 114.154 24.154C113.604 24.714 112.939 25.146 112.206 25.422C111.506 25.694 110.706 25.88 109.536 25.934C108.362 25.988 107.988 26 105 26C102.012 26 101.638 25.987 100.465 25.934C99.295 25.881 98.495 25.694 97.795 25.422C97.0609 25.146 96.3958 24.7133 95.846 24.154C95.2864 23.6047 94.8533 22.9399 94.577 22.206C94.306 21.506 94.12 20.706 94.066 19.536C94.012 18.361 94 17.987 94 15C94 12.012 94.013 11.638 94.066 10.466C94.119 9.294 94.306 8.494 94.577 7.794C94.8537 7.06008 95.2871 6.39531 95.847 5.846C96.396 5.2865 97.0605 4.85344 97.794 4.577C98.494 4.306 99.294 4.12 100.464 4.066H100.465ZM109.445 6.046C108.285 5.993 107.937 5.982 105 5.982C102.063 5.982 101.715 5.993 100.555 6.046C99.482 6.095 98.9 6.274 98.512 6.425C97.999 6.625 97.632 6.862 97.247 7.247C96.882 7.60205 96.6012 8.03428 96.425 8.512C96.274 8.9 96.095 9.482 96.046 10.555C95.993 11.715 95.982 12.063 95.982 15C95.982 17.937 95.993 18.285 96.046 19.445C96.095 20.518 96.274 21.1 96.425 21.488C96.601 21.965 96.882 22.398 97.247 22.753C97.602 23.118 98.035 23.399 98.512 23.575C98.9 23.726 99.482 23.905 100.555 23.954C101.715 24.007 102.062 24.018 105 24.018C107.938 24.018 108.285 24.007 109.445 23.954C110.518 23.905 111.1 23.726 111.488 23.575C112.001 23.375 112.368 23.138 112.753 22.753C113.118 22.398 113.399 21.965 113.575 21.488C113.726 21.1 113.905 20.518 113.954 19.445C114.007 18.285 114.018 17.937 114.018 15C114.018 12.063 114.007 11.715 113.954 10.555C113.905 9.482 113.726 8.9 113.575 8.512C113.375 7.999 113.138 7.632 112.753 7.247C112.398 6.88207 111.966 6.60121 111.488 6.425C111.1 6.274 110.518 6.095 109.445 6.046ZM103.595 18.391C104.38 18.7176 105.253 18.7617 106.067 18.5157C106.88 18.2697 107.583 17.7489 108.056 17.0422C108.528 16.3356 108.74 15.4869 108.656 14.6411C108.572 13.7953 108.197 13.005 107.595 12.405C107.211 12.0215 106.747 11.7278 106.236 11.5451C105.725 11.3625 105.18 11.2954 104.64 11.3486C104.101 11.4019 103.579 11.5742 103.114 11.8531C102.648 12.1321 102.251 12.5107 101.949 12.9619C101.648 13.413 101.45 13.9253 101.371 14.462C101.291 14.9986 101.331 15.5463 101.489 16.0655C101.646 16.5847 101.916 17.0626 102.281 17.4647C102.645 17.8668 103.094 18.1832 103.595 18.391ZM101.002 11.002C101.527 10.477 102.15 10.0605 102.836 9.77636C103.522 9.49222 104.258 9.34597 105 9.34597C105.742 9.34597 106.478 9.49222 107.164 9.77636C107.85 10.0605 108.473 10.477 108.998 11.002C109.523 11.527 109.939 12.1503 110.224 12.8363C110.508 13.5223 110.654 14.2575 110.654 15C110.654 15.7425 110.508 16.4777 110.224 17.1637C109.939 17.8497 109.523 18.473 108.998 18.998C107.938 20.0583 106.5 20.654 105 20.654C103.5 20.654 102.062 20.0583 101.002 18.998C99.9417 17.9377 99.346 16.4995 99.346 15C99.346 13.5005 99.9417 12.0623 101.002 11.002ZM111.908 10.188C112.038 10.0653 112.142 9.91768 112.214 9.75397C112.286 9.59027 112.325 9.41377 112.327 9.23493C112.33 9.05609 112.297 8.87855 112.229 8.71281C112.162 8.54707 112.062 8.39651 111.936 8.27004C111.809 8.14357 111.659 8.04376 111.493 7.97652C111.327 7.90928 111.15 7.87598 110.971 7.87858C110.792 7.88119 110.616 7.91965 110.452 7.9917C110.288 8.06374 110.141 8.1679 110.018 8.298C109.779 8.55103 109.649 8.88712 109.654 9.23493C109.659 9.58274 109.799 9.91488 110.045 10.1608C110.291 10.4068 110.623 10.5472 110.971 10.5523C111.319 10.5574 111.655 10.4267 111.908 10.188Z" fill="white"/>
</svg>
